{
.appVersion = "3151";
.formatVersion = 3;
customParameters = (
{
name = vendorID;
value = GOOG;
},
{
name = panose;
value = (
2,
2,
6,
0,
0,
0,
0,
0,
0,
0
);
},
{
name = unicodeRanges;
value = (
0,
1,
7,
29,
36,
42,
43,
44,
45,
48,
49,
50,
51,
52,
54,
55,
57,
59,
61,
65,
66,
68
);
},
{
name = codePageRanges;
value = (
"1252",
"1250",
"1251",
"1258",
"932",
"936",
"bit 29",
"bit 30"
);
},
{
name = fsType;
value = (
);
},
{
name = ROS;
value = "Adobe-Identity-0";
}
);
date = "2017-05-01 11:21:50 +0000";
familyName = "Yaku Han MP s";
featurePrefixes = (
{
automatic = 1;
code = "languagesystem DFLT dflt;
";
name = Languagesystems;
}
);
features = (
{
automatic = 1;
code = "feature vert;
feature vrt2;
";
tag = aalt;
},
{
code = "sub blacklenticularbracketleft by blacklenticularbracketleft.vert;
sub blacklenticularbracketright by blacklenticularbracketright.vert;
sub cornerbracketleft by cornerbracketleft.vert;
sub cornerbracketright by cornerbracketright.vert;
sub dblanglebracketleft by dblanglebracketleft.vert;
sub dblanglebracketright by dblanglebracketright.vert;
sub tortoiseshellbracketleft by tortoiseshellbracketleft.vert;
sub tortoiseshellbracketright by tortoiseshellbracketright.vert;
sub whitecornerbracketleft by whitecornerbracketleft.vert;
sub whitecornerbracketright by whitecornerbracketright.vert;
sub whitelenticularbracketleft by whitelenticularbracketleft.vert;
sub whitelenticularbracketright by whitelenticularbracketright.vert;
sub braceleft.full by braceleft.full.vert;
sub braceright.full by braceright.full.vert;
sub bracketleft.full by bracketleft.full.vert;
sub bracketright.full by bracketright.full.vert;
sub parenleft.full by parenleft.full.vert;
sub parenright.full by parenright.full.vert;
sub angleLeft by anglebracketleft.vert;
sub angleRight by anglebracketright.vert;";
tag = vert;
},
{
automatic = 1;
code = "sub blacklenticularbracketleft by blacklenticularbracketleft.vert;
sub blacklenticularbracketright by blacklenticularbracketright.vert;

glyphs = (
{
glyphname = .notdef;
layers = (
{
hints = (
{
horizontal = 1;
place = (-120, 50);
place = (-120, 50);
type = Stem;
},
{
horizontal = 1;
place = (830, 50);
place = (830, 50);
type = Stem;
},
{
place = (100, 50);
place = (100, 50);
type = Stem;
},
{
place = (850, 50);
place = (850, 50);
type = Stem;
},
{
horizontal = 1;
place = (789, 91);
place = (789, 91);
type = Stem;
}
);
layerId = m01;
shapes = (
{
closed = 1;
nodes = (
(100,-120,l),
(900,-120,l),
(900,880,l),
(100,880,l)
);
},
{
closed = 1;
nodes = (
(500,421,l),
(182,830,l),
(818,830,l)
);
},
{
closed = 1;
nodes = (
(532,380,l),
(850,789,l),
(850,-29,l)
);
},
{
closed = 1;
nodes = (
(182,-70,l),
(500,339,l),
(818,-70,l)
);
},
{
closed = 1;
nodes = (
(150,789,l),
(468,380,l),
(150,-29,l)
);
}
);
vertWidth = 1000;
width = 1000;
}
);
note = ".notdef";
},
{
glyphname = angleLeft;
lastChange = "2023-08-28 01:16:36 +0000";
layers = (
{
hints = (
{
horizontal = 1;
place = (-91, 942);
place = (-91, 942);
type = Stem;
},
{
place = (531, 437);
place = (531, 437);
type = Stem;
}
);
layerId = m01;
shapes = (
{
closed = 1;
nodes = (
(637,825,l),
(607,851,l),
(200,380,l),
(607,-91,l),
(637,-65,l),
(253,380,l)
);
}
);
vertWidth = 1000;
width = 669;
}
);
note = cid01404;
unicode = (9001,12296);
},
{
glyphname = angleRight;
lastChange = "2023-08-28 01:16:47 +0000";
layers = (
{
hints = (
{
horizontal = 1;
place = (-91, 942);
place = (-91, 942);
type = Stem;
},
{
place = (32, 437);
place = (32, 437);
type = Stem;
}
);
layerId = m01;
shapes = (
{
closed = 1;
nodes = (
(32,-65,l),
(62,-91,l),
(469,380,l),
(62,851,l),
(32,825,l),
(416,380,l)
);
}
);
vertWidth = 1000;
width = 669;
}
);
note = cid01405;
unicode = (9002,12297);
},
{
glyphname = blacklenticularbracketleft;
lastChange = "2023-08-28 01:16:36 +0000";
layers = (
{
hints = (
{
horizontal = 1;
place = (-88, 17);
place = (-88, 17);
type = Stem;
},
{
horizontal = 1;
place = (831, 17);
place = (831, 17);
type = Stem;
},
{
place = (625, 80);
place = (625, 80);
type = Stem;
}
);
layerId = m01;
shapes = (
{
closed = 1;
nodes = (
(543,-71,l),
(385,2,o),
(280,157,o),
(280,380,cs),
(280,603,o),
(385,758,o),
(543,831,c),
(543,848,l),
(200,848,l),
(200,-88,l),
(543,-88,l)
);
}
);
vertWidth = 1000;
width = 575;
}
);
note = cid01412;
unicode = 12304;
},
{
glyphname = blacklenticularbracketright;
lastChange = "2023-08-28 01:16:47 +0000";
layers = (
{
hints = (
{
horizontal = 1;
place = (-88, 17);
place = (-88, 17);
type = Stem;
},
{
horizontal = 1;
place = (831, 17);
place = (831, 17);
type = Stem;
},
{
place = (295, 80);
place = (295, 80);
type = Stem;
}
);
layerId = m01;
shapes = (
{
closed = 1;
nodes = (
(32,-88,l),
(375,-88,l),
(375,848,l),
(32,848,l),
(32,831,l),
(190,758,o),
(295,603,o),
(295,380,cs),
(295,157,o),
(190,2,o),
(32,-71,c)
);
}
);
vertWidth = 1000;
width = 575;
}
);
note = cid01413;
unicode = 12305;
},
{
glyphname = braceleft.full;
lastChange = "2023-08-28 01:16:36 +0000";
layers = (
{
hints = (
{
horizontal = 1;
place = (-112, 42);
place = (-112, 42);
type = Stem;
},
{
horizontal = 1;
place = (830, 43);
place = (830, 43);
type = Stem;
},
{
place = (700, 96);
place = (700, 96);
type = Stem;
},
{
place = (732, 76);
place = (732, 76);
type = Stem;
}
);
layerId = m01;
shapes = (
{
closed = 1;
nodes = (
(596,831,l),
(596,873,l),
(548,873,ls),
(403,873,o),
(323,823,o),
(323,729,cs),
(323,643,o),
(355,566,o),
(355,503,cs),
(355,450,o),
(322,420,o),
(200,400,c),
(200,361,l),
(323,340,o),
(355,310,o),
(355,258,cs),
(355,194,o),
(323,117,o),
(323,32,cs),
(323,-63,o),
(403,-112,o),
(548,-112,cs),
(596,-112,l),
(596,-72,l),
(547,-68,ls),
(454,-62,o),
(419,-28,o),
(419,40,cs),
(419,110,o),
(431,177,o),
(431,241,cs),
(431,304,o),
(392,358,o),
(299,380,c),
(392,403,o),
(431,456,o),
(431,520,cs),
(431,583,o),
(419,648,o),
(419,722,cs),
(419,789,o),
(454,824,o),
(547,829,cs)
);
}
);
vertWidth = 1000;
width = 623;
}
);
note = cid60034;
unicode = 65371;
},
{
glyphname = braceright.full;
lastChange = "2023-08-28 01:16:47 +0000";
layers = (
{
hints = (
{
horizontal = 1;
place = (-113, 43);
place = (-113, 43);
type = Stem;
},
{
horizontal = 1;
place = (830, 42);
place = (830, 42);
type = Stem;
},
{
place = (204, 96);
place = (204, 96);
type = Stem;
},
{
place = (192, 76);
place = (192, 76);
type = Stem;
}
);
layerId = m01;
shapes = (
{
closed = 1;
nodes = (
(423,399,l),
(300,420,o),
(268,450,o),
(268,502,cs),
(268,566,o),
(300,643,o),
(300,728,cs),
(300,823,o),
(220,872,o),
(75,872,cs),
(27,872,l),
(27,832,l),
(76,828,ls),
(169,822,o),
(204,788,o),
(204,720,cs),
(204,650,o),
(192,583,o),
(192,519,cs),
(192,456,o),
(231,402,o),
(324,380,c),
(231,357,o),
(192,304,o),
(192,240,cs),
(192,177,o),
(204,112,o),
(204,38,cs),
(204,-29,o),
(169,-64,o),
(76,-69,cs),
(27,-71,l),
(27,-113,l),
(75,-113,ls),
(220,-113,o),
(300,-63,o),
(300,31,cs),
(300,117,o),
(268,194,o),
(268,257,cs),
(268,310,o),
(301,340,o),
(423,360,c)
);
}
);
vertWidth = 1000;
width = 623;
}
);
note = cid60036;
unicode = 65373;
},
{
glyphname = cornerbracketleft;
lastChange = "2023-08-28 01:16:36 +0000";
layers = (
{
hints = (
{
horizontal = 1;
place = (810, 38);
place = (810, 38);
type = Stem;
},
{
place = (652, 40);
place = (652, 40);
type = Stem;
}
);
layerId = m01;
shapes = (
{
closed = 1;
nodes = (
(200,203,l),
(240,203,l),
(240,810,l),
(516,810,l),
(516,848,l),
(200,848,l)
);
}
);
vertWidth = 1000;
width = 548;
}
);
note = cid01408;
unicode = 12300;
},
{
glyphname = cornerbracketright;
lastChange = "2023-08-28 01:16:47 +0000";
layers = (
{
hints = (
{
horizontal = 1;
place = (-88, 38);
place = (-88, 38);
type = Stem;
},
{
place = (308, 40);
place = (308, 40);
type = Stem;
}
);
layerId = m01;
shapes = (
{
closed = 1;
nodes = (
(348,557,l),
(308,557,l),
(308,-50,l),
(32,-50,l),
(32,-88,l),
(348,-88,l)
);
}
);
vertWidth = 1000;
width = 548;
}
);
note = cid01409;
unicode = 12301;
},
{
glyphname = dblanglebracketleft;
lastChange = "2023-08-28 01:16:36 +0000";
layers = (
{
hints = (
{
horizontal = 1;
place = (-91, 942);
place = (-91, 942);
type = Stem;
},
{
place = (525, 442);
place = (525, 442);
type = Stem;
}
);
layerId = m01;
shapes = (
{
closed = 1;
nodes = (
(240,380,l),
(499,833,l),
(470,851,l),
(200,380,l),
(470,-91,l),
(499,-73,l)
);
},
{
closed = 1;
nodes = (
(383,380,l),
(642,833,l),
(613,851,l),
(343,380,l),
(613,-91,l),
(642,-73,l)
);
}
);
vertWidth = 1000;
width = 675;
}
);
note = cid01406;
unicode = 12298;
},
{
glyphname = dblanglebracketright;
lastChange = "2023-08-28 01:16:47 +0000";
layers = (
{
hints = (
{
horizontal = 1;
place = (-91, 942);
place = (-91, 942);
type = Stem;
},
{
place = (33, 442);
place = (33, 442);
type = Stem;
}
);
layerId = m01;
shapes = (
{
closed = 1;
nodes = (
(205,-91,l),
(475,380,l),
(205,851,l),
(176,833,l),
(435,380,l),
(176,-73,l)
);
},
{
closed = 1;
nodes = (
(62,-91,l),
(332,380,l),
(62,851,l),
(33,833,l),
(292,380,l),
(33,-73,l)
);
}
);
vertWidth = 1000;
width = 675;
}
);
note = cid01407;
unicode = 12299;
},
{
glyphname = tortoiseshellbracketleft;
lastChange = "2023-08-28 01:16:36 +0000";
layers = (
{
hints = (
{
horizontal = 1;
place = (-91, 942);
place = (-91, 942);
type = Stem;
},
{
place = (718, 39);
place = (718, 39);
type = Stem;
}
);
layerId = m01;
shapes = (
{
closed = 1;
nodes = (
(432,-91,l),
(449,-57,l),
(239,41,l),
(239,719,l),
(449,817,l),
(432,851,l),
(200,742,l),
(200,18,l)
);
}
);
vertWidth = 1000;
width = 482;
}
);
note = cid01416;
unicode = 12308;
},
{
glyphname = tortoiseshellbracketright;
lastChange = "2023-08-28 01:16:47 +0000";
layers = (
{
hints = (
{
horizontal = 1;
place = (-91, 942);
place = (-91, 942);
type = Stem;
},
{
place = (243, 39);
place = (243, 39);
type = Stem;
}
);
layerId = m01;
shapes = (
{
closed = 1;
nodes = (
(50,-91,l),
(282,18,l),
(282,742,l),
(50,851,l),
(33,817,l),
(243,718,l),
(243,42,l),
(33,-57,l)
);
}
);
vertWidth = 1000;
width = 482;
}
);
note = cid01417;
unicode = 12309;
},
{
glyphname = whitecornerbracketleft;
lastChange = "2023-08-28 01:16:36 +0000";
layers = (
{
hints = (
{
horizontal = 1;
place = (197, 28);
place = (197, 28);
type = Stem;
},
{
horizontal = 1;
place = (702, 28);
place = (702, 28);
type = Stem;
},
{
horizontal = 1;
place = (820, 28);
place = (820, 28);
type = Stem;
},
{
place = (614, 28);
place = (614, 28);
type = Stem;
},
{
place = (736, 28);
place = (736, 28);
type = Stem;
},
{
place = (940, 28);
place = (940, 28);
type = Stem;
}
);
layerId = m01;
shapes = (
{
closed = 1;
nodes = (
(554,702,l),
(554,848,l),
(200,848,l),
(200,197,l),
(350,197,l),
(350,702,l)
);
},
{
closed = 1;
nodes = (
(526,820,l),
(526,730,l),
(322,730,l),
(322,225,l),
(228,225,l),
(228,820,l)
);
}
);
vertWidth = 1000;
width = 586;
}
);
note = cid01410;
unicode = 12302;
},
{
glyphname = whitecornerbracketright;
lastChange = "2023-08-28 01:16:47 +0000";
layers = (
{
hints = (
{
horizontal = 1;
place = (-88, 28);
place = (-88, 28);
type = Stem;
},
{
horizontal = 1;
place = (30, 28);
place = (30, 28);
type = Stem;
},
{
horizontal = 1;
place = (535, 28);
place = (535, 28);
type = Stem;
},
{
place = (32, 28);
place = (32, 28);
type = Stem;
},
{
place = (236, 28);
place = (236, 28);
type = Stem;
},
{
place = (358, 28);
place = (358, 28);
type = Stem;
}
);
layerId = m01;
shapes = (
{
closed = 1;
nodes = (
(32,58,l),
(32,-88,l),
(386,-88,l),
(386,563,l),
(236,563,l),
(236,58,l)
);
},
{
closed = 1;
nodes = (
(60,-60,l),
(60,30,l),
(264,30,l),
(264,535,l),
(358,535,l),
(358,-60,l)
);
}
);
vertWidth = 1000;
width = 586;
}
);
note = cid01411;
unicode = 12303;
},
{
glyphname = whitelenticularbracketleft;
lastChange = "2023-08-28 01:16:36 +0000";
layers = (
{
hints = (
{
horizontal = 1;
place = (-88, 28);
place = (-88, 28);
type = Stem;
},
{
horizontal = 1;
place = (820, 28);
place = (820, 28);
type = Stem;
},
{
place = (618, 28);
place = (618, 28);
type = Stem;
},
{
place = (678, 28);
place = (678, 28);
type = Stem;
},
{
horizontal = 1;
place = (827, 21);
place = (827, 21);
type = Stem;
}
);
layerId = m01;
shapes = (
{
closed = 1;
nodes = (
(550,-67,l),
(396,0,o),
(288,157,o),
(288,380,cs),
(288,603,o),
(396,760,o),
(550,827,c),
(550,848,l),
(200,848,l),
(200,-88,l),
(550,-88,l)
);
},
{
closed = 1;
nodes = (
(228,-60,l),
(228,820,l),
(478,820,l),
(390,765,o),
(260,633,o),
(260,380,cs),
(260,127,o),
(390,-5,o),
(478,-60,c)
);
}
);
vertWidth = 1000;
width = 582;
}
);
note = cid01418;
unicode = 12310;
},
{
glyphname = whitelenticularbracketright;
lastChange = "2023-08-28 01:16:47 +0000";
layers = (
{
hints = (
{
horizontal = 1;
place = (-88, 28);
place = (-88, 28);
type = Stem;
},
{
horizontal = 1;
place = (820, 28);
place = (820, 28);
type = Stem;
},
{
place = (294, 28);
place = (294, 28);
type = Stem;
},
{
place = (354, 28);
place = (354, 28);
type = Stem;
},
{
horizontal = 1;
place = (827, 21);
place = (827, 21);
type = Stem;
}
);
layerId = m01;
shapes = (
{
closed = 1;
nodes = (
(382,-88,l),
(382,848,l),
(33,848,l),
(33,827,l),
(186,760,o),
(294,603,o),
(294,380,cs),
(294,157,o),
(186,0,o),
(33,-67,c),
(33,-88,l)
);
},
{
closed = 1;
nodes = (
(322,633,o),
(193,765,o),
(105,820,c),
(354,820,l),
(354,-60,l),
(105,-60,l),
(193,-5,o),
(322,127,o),
(322,380,cs)
);
}
);
vertWidth = 1000;
width = 582;
}
);
note = cid01419;
unicode = 12311;
},
{
glyphname = anglebracketleft.vert;
lastChange = "2023-08-28 01:17:13 +0000";
layers = (
{
hints = (
{
horizontal = 1;
place = (-88, 437);
place = (-88, 437);
type = Stem;
},
{
place = (29, 942);
place = (29, 942);
type = Stem;
}
);
layerId = m01;
shapes = (
{
closed = 1;
nodes = (
(945,243,l),
(971,273,l),
(500,680,l),
(29,273,l),
(55,243,l),
(500,627,l)
);
}
);
vertWidth = 669;
width = 1000;
}
);
note = cid59901;
unicode = 65087;
},
{
glyphname = anglebracketright.vert;
lastChange = "2023-08-28 01:17:18 +0000";
layers = (
{
hints = (
{
horizontal = 1;
place = (411, 437);
place = (411, 437);
type = Stem;
},
{
place = (29, 942);
place = (29, 942);
type = Stem;
}
);
layerId = m01;
shapes = (
{
closed = 1;
nodes = (
(55,848,l),
(29,818,l),
(500,411,l),
(971,818,l),
(945,848,l),
(500,464,l)
);
}
);
vertWidth = 669;
width = 1000;
}
);
note = cid59902;
unicode = 65088;
},
{
glyphname = blacklenticularbracketleft.vert;
lastChange = "2023-08-28 01:17:23 +0000";
layers = (
{
hints = (
{
horizontal = 1;
place = (175, 80);
place = (175, 80);
type = Stem;
},
{
place = (32, 17);
place = (32, 17);
type = Stem;
},
{
place = (951, 17);
place = (951, 17);
type = Stem;
}
);
layerId = m01;
shapes = (
{
closed = 1;
nodes = (
(49,337,l),
(122,495,o),
(277,600,o),
(500,600,cs),
(723,600,o),
(878,495,o),
(951,337,c),
(968,337,l),
(968,680,l),
(32,680,l),
(32,337,l)
);
}
);
vertWidth = 575;
width = 1000;
}
);
note = cid59897;
unicode = 65083;
},
{
glyphname = blacklenticularbracketright.vert;
lastChange = "2023-08-28 01:17:28 +0000";
layers = (
{
hints = (
{
horizontal = 1;
place = (505, 80);
place = (505, 80);
type = Stem;
},
{
place = (32, 17);
place = (32, 17);
type = Stem;
},
{
place = (951, 17);
place = (951, 17);
type = Stem;
}
);
layerId = m01;
shapes = (
{
closed = 1;
nodes = (
(951,848,l),
(878,690,o),
(723,585,o),
(500,585,cs),
(277,585,o),
(122,690,o),
(49,848,c),
(32,848,l),
(32,505,l),
(968,505,l),
(968,848,l)
);
}
);
vertWidth = 575;
width = 1000;
}
);
note = cid59898;
unicode = 65084;
},
{
glyphname = bracketleft.full;
lastChange = "2023-08-28 01:16:36 +0000";
layers = (
{
hints = (
{
horizontal = 1;
place = (-88, 38);
place = (-88, 38);
type = Stem;
},
{
horizontal = 1;
place = (810, 38);
place = (810, 38);
type = Stem;
},
{
place = (718, 39);
place = (718, 39);
type = Stem;
}
);
layerId = m01;
shapes = (
{
closed = 1;
nodes = (
(200,-88,l),
(450,-88,l),
(450,-50,l),
(239,-50,l),
(239,810,l),
(450,810,l),
(450,848,l),
(200,848,l)
);
}
);
vertWidth = 1000;
width = 482;
}
);
note = cid60002;
unicode = 65339;
},
{
glyphname = bracketright.full;
lastChange = "2023-08-28 01:16:47 +0000";
layers = (
{
hints = (
{
horizontal = 1;
place = (-88, 38);
place = (-88, 38);
type = Stem;
},
{
horizontal = 1;
place = (810, 38);
place = (810, 38);
type = Stem;
},
{
place = (243, 39);
place = (243, 39);
type = Stem;
}
);
layerId = m01;
shapes = (
{
closed = 1;
nodes = (
(282,-88,l),
(282,848,l),
(32,848,l),
(32,810,l),
(243,810,l),
(243,-50,l),
(32,-50,l),
(32,-88,l)
);
}
);
vertWidth = 1000;
width = 482;
}
);
note = cid60004;
unicode = 65341;
},
{
glyphname = cornerbracketleft.vert;
lastChange = "2023-08-28 01:17:34 +0000";
layers = (
{
hints = (
{
horizontal = 1;
place = (190, 38);
place = (190, 38);
type = Stem;
},
{
place = (935, 40);
place = (935, 40);
type = Stem;
}
);
layerId = m01;
shapes = (
{
closed = 1;
nodes = (
(273,680,l),
(273,642,l),
(935,642,l),
(935,364,l),
(975,364,l),
(975,680,l)
);
}
);
vertWidth = 548;
width = 1000;
}
);
note = cid59903;
unicode = 65089;
},
{
glyphname = cornerbracketright.vert;
lastChange = "2023-08-28 01:17:39 +0000";
layers = (
{
hints = (
{
horizontal = 1;
place = (522, 38);
place = (522, 38);
type = Stem;
},
{
place = (25, 40);
place = (25, 40);
type = Stem;
}
);
layerId = m01;
shapes = (
{
closed = 1;
nodes = (
(727,522,l),
(727,560,l),
(65,560,l),
(65,837,l),
(25,837,l),
(25,522,l)
);
}
);
vertWidth = 558;
width = 1000;
}
);
note = cid59904;
unicode = 65090;
},
{
glyphname = dblanglebracketleft.vert;
lastChange = "2023-08-28 01:17:45 +0000";
layers = (
{
hints = (
{
horizontal = 1;
place = (-87, 442);
place = (-87, 442);
type = Stem;
},
{
place = (29, 942);
place = (29, 942);
type = Stem;
}
);
layerId = m01;
shapes = (
{
closed = 1;
nodes = (
(500,640,l),
(953,381,l),
(971,410,l),
(500,680,l),
(29,410,l),
(47,381,l)
);
},
{
closed = 1;
nodes = (
(500,497,l),
(953,238,l),
(971,267,l),
(500,537,l),
(29,267,l),
(47,238,l)
);
}
);
vertWidth = 675;
width = 1000;
}
);
note = cid59899;
unicode = 65085;
},
{
glyphname = dblanglebracketright.vert;
lastChange = "2023-08-28 01:17:50 +0000";
layers = (
{
hints = (
{
horizontal = 1;
place = (405, 442);
place = (405, 442);
type = Stem;
},
{
place = (29, 942);
place = (29, 942);
type = Stem;
}
);
layerId = m01;
shapes = (
{
closed = 1;
nodes = (
(29,675,l),
(500,405,l),
(971,675,l),
(953,704,l),
(500,445,l),
(47,704,l)
);
},
{
closed = 1;
nodes = (
(29,818,l),
(500,548,l),
(971,818,l),
(953,847,l),
(500,588,l),
(47,847,l)
);
}
);
vertWidth = 675;
width = 1000;
}
);
note = cid59900;
unicode = 65086;
},
{
glyphname = parenleft.full;
lastChange = "2023-08-28 01:16:36 +0000";
layers = (
{
hints = (
{
horizontal = 1;
place = (-91, 942);
place = (-91, 942);
type = Stem;
},
{
place = (646, 83);
place = (646, 83);
type = Stem;
}
);
layerId = m01;
shapes = (
{
closed = 1;
nodes = (
(200,138,o),
(337,-4,o),
(478,-91,c),
(494,-72,l),
(379,24,o),
(283,165,o),
(283,380,cs),
(283,595,o),
(379,736,o),
(494,832,c),
(478,851,l),
(337,764,o),
(200,622,o),
(200,380,cs)
);
}
);
vertWidth = 1000;
width = 554;
}
);
note = cid59951;
unicode = 65288;
},
{
glyphname = parenright.full;
lastChange = "2023-08-28 01:16:47 +0000";
layers = (
{
hints = (
{
horizontal = 1;
place = (-91, 942);
place = (-91, 942);
type = Stem;
},
{
place = (271, 83);
place = (271, 83);
type = Stem;
}
);
layerId = m01;
shapes = (
{
closed = 1;
nodes = (
(60,832,l),
(175,736,o),
(271,595,o),
(271,380,cs),
(271,165,o),
(175,24,o),
(60,-72,c),
(76,-91,l),
(217,-4,o),
(354,138,o),
(354,380,cs),
(354,622,o),
(217,764,o),
(76,851,c)
);
}
);
vertWidth = 1000;
width = 554;
}
);
note = cid59952;
unicode = 65289;
},
{
glyphname = tortoiseshellbracketleft.vert;
lastChange = "2023-08-28 01:17:56 +0000";
layers = (
{
hints = (
{
horizontal = 1;
place = (124, 38);
place = (124, 38);
type = Stem;
},
{
place = (29, 942);
place = (29, 942);
type = Stem;
}
);
layerId = m01;
shapes = (
{
closed = 1;
nodes = (
(138,680,l),
(29,448,l),
(63,430,l),
(163,642,l),
(837,642,l),
(937,430,l),
(971,448,l),
(862,680,l)
);
}
);
vertWidth = 482;
width = 1000;
}
);
note = cid59895;
unicode = 65081;
},
{
glyphname = tortoiseshellbracketright.vert;
lastChange = "2023-08-28 01:18:01 +0000";
layers = (
{
hints = (
{
horizontal = 1;
place = (598, 38);
place = (598, 38);
type = Stem;
},
{
place = (29, 942);
place = (29, 942);
type = Stem;
}
);
layerId = m01;
shapes = (
{
closed = 1;
nodes = (
(971,830,l),
(937,848,l),
(837,636,l),
(163,636,l),
(63,848,l),
(29,830,l),
(138,598,l),
(862,598,l)
);
}
);
vertWidth = 482;
width = 1000;
}
);
note = cid59896;
unicode = 65082;
},
{
glyphname = whitecornerbracketleft.vert;
lastChange = "2023-08-28 01:18:06 +0000";
layers = (
{
hints = (
{
horizontal = 1;
place = (-88, 28);
place = (-88, 28);
type = Stem;
},
{
horizontal = 1;
place = (111, 28);
place = (111, 28);
type = Stem;
},
{
horizontal = 1;
place = (229, 28);
place = (229, 28);
type = Stem;
},
{
place = (317, 28);
place = (317, 28);
type = Stem;
},
{
place = (818, 28);
place = (818, 28);
type = Stem;
},
{
place = (940, 28);
place = (940, 28);
type = Stem;
}
);
layerId = m01;
shapes = (
{
closed = 1;
nodes = (
(818,335,l),
(968,335,l),
(968,680,l),
(317,680,l),
(317,534,l),
(818,534,l)
);
},
{
closed = 1;
nodes = (
(940,363,l),
(846,363,l),
(846,562,l),
(345,562,l),
(345,652,l),
(940,652,l)
);
}
);
vertWidth = 577;
width = 1000;
}
);
note = cid59905;
unicode = 65091;
},
{
glyphname = whitecornerbracketright.vert;
lastChange = "2023-08-28 01:18:12 +0000";
layers = (
{
hints = (
{
horizontal = 1;
place = (503, 28);
place = (503, 28);
type = Stem;
},
{
horizontal = 1;
place = (621, 28);
place = (621, 28);
type = Stem;
},
{
horizontal = 1;
place = (820, 28);
place = (820, 28);
type = Stem;
},
{
place = (32, 28);
place = (32, 28);
type = Stem;
},
{
place = (154, 28);
place = (154, 28);
type = Stem;
},
{
place = (655, 28);
place = (655, 28);
type = Stem;
}
);
layerId = m01;
shapes = (
{
closed = 1;
nodes = (
(182,848,l),
(32,848,l),
(32,503,l),
(683,503,l),
(683,649,l),
(182,649,l)
);
},
{
closed = 1;
nodes = (
(60,820,l),
(154,820,l),
(154,621,l),
(655,621,l),
(655,531,l),
(60,531,l)
);
}
);
vertWidth = 577;
width = 1000;
}
);
note = cid59906;
unicode = 65092;
},
{
glyphname = whitelenticularbracketleft.vert;
lastChange = "2023-08-28 01:18:18 +0000";
layers = (
{
hints = (
{
horizontal = 1;
place = (174, 28);
place = (174, 28);
type = Stem;
},
{
horizontal = 1;
place = (234, 28);
place = (234, 28);
type = Stem;
},
{
place = (32, 28);
place = (32, 28);
type = Stem;
},
{
place = (940, 28);
place = (940, 28);
type = Stem;
}
);
layerId = m01;
shapes = (
{
closed = 1;
nodes = (
(53,330,l),
(120,484,o),
(277,592,o),
(500,592,cs),
(723,592,o),
(880,484,o),
(947,330,c),
(968,330,l),
(968,680,l),
(32,680,l),
(32,330,l)
);
},
{
closed = 1;
nodes = (
(60,652,l),
(940,652,l),
(940,402,l),
(885,490,o),
(753,620,o),
(500,620,cs),
(247,620,o),
(115,490,o),
(60,402,c)
);
}
);
vertWidth = 582;
width = 1000;
}
);
note = cid59883;
unicode = 65047;
},
{
glyphname = whitelenticularbracketright.vert;
lastChange = "2023-08-28 01:18:23 +0000";
layers = (
{
hints = (
{
horizontal = 1;
place = (505, 28);
place = (505, 28);
type = Stem;
},
{
horizontal = 1;
place = (565, 28);
place = (565, 28);
type = Stem;
},
{
place = (32, 28);
place = (32, 28);
type = Stem;
},
{
place = (940, 28);
place = (940, 28);
type = Stem;
}
);
layerId = m01;
shapes = (
{
closed = 1;
nodes = (
(32,505,l),
(968,505,l),
(968,854,l),
(947,854,l),
(880,701,o),
(723,593,o),
(500,593,cs),
(277,593,o),
(120,701,o),
(53,854,c),
(32,854,l)
);
},
{
closed = 1;
nodes = (
(753,565,o),
(885,694,o),
(940,782,c),
(940,533,l),
(60,533,l),
(60,782,l),
(115,694,o),
(247,565,o),
(500,565,cs)
);
}
);
vertWidth = 575;
width = 1000;
}
);
note = cid59884;
unicode = 65048;
},
{
glyphname = braceleft.full.vert;
lastChange = "2023-08-28 01:18:29 +0000";
layers = (
{
hints = (
{
horizontal = 1;
place = (52, 96);
place = (52, 96);
type = Stem;
},
{
place = (7, 43);
place = (7, 43);
type = Stem;
},
{
place = (950, 43);
place = (950, 43);
type = Stem;
},
{
horizontal = 1;
place = (36, 76);
place = (36, 76);
type = Stem;
}
);
layerId = m01;
shapes = (
{
closed = 1;
nodes = (
(480,680,l),
(460,559,o),
(430,526,o),
(378,526,cs),
(314,526,o),
(237,562,o),
(152,562,cs),
(57,562,o),
(7,483,o),
(7,338,cs),
(7,293,l),
(48,293,l),
(52,339,ls),
(58,432,o),
(91,466,o),
(159,466,cs),
(231,466,o),
(296,450,o),
(361,450,cs),
(424,450,o),
(478,489,o),
(500,582,c),
(523,489,o),
(576,450,o),
(640,450,cs),
(703,450,o),
(769,466,o),
(841,466,cs),
(909,466,o),
(943,432,o),
(949,339,cs),
(951,293,l),
(993,293,l),
(993,338,ls),
(993,483,o),
(943,562,o),
(848,562,cs),
(763,562,o),
(686,526,o),
(622,526,cs),
(570,526,o),
(540,558,o),
(520,680,c)
);
}
);
vertWidth = 586;
width = 1000;
}
);
note = cid59893;
unicode = 65079;
},
{
glyphname = braceright.full.vert;
lastChange = "2023-08-28 01:18:35 +0000";
layers = (
{
hints = (
{
horizontal = 1;
place = (608, 97);
place = (608, 97);
type = Stem;
},
{
place = (7, 43);
place = (7, 43);
type = Stem;
},
{
place = (950.5, 42.5);
place = (950.5, 42.5);
type = Stem;
},
{
horizontal = 1;
place = (645, 76);
place = (645, 76);
type = Stem;
}
);
layerId = m01;
shapes = (
{
closed = 1;
nodes = (
(952,877,l),
(949,832,ls),
(943,739,o),
(909,705,o),
(841,705,cs),
(769,705,o),
(703,721,o),
(640,721,cs),
(576,721,o),
(523,682,o),
(500,588,c),
(478,682,o),
(424,721,o),
(361,721,cs),
(297,721,o),
(231,705,o),
(159,705,cs),
(91,705,o),
(58,739,o),
(52,832,cs),
(48,877,l),
(7,877,l),
(7,832,ls),
(7,688,o),
(57,608,o),
(152,608,cs),
(237,608,o),
(314,645,o),
(378,645,cs),
(430,645,o),
(460,612,o),
(480,491,c),
(520,491,l),
(540,612,o),
(570,645,o),
(622,645,cs),
(686,645,o),
(763,608,o),
(848,608,cs),
(943,608,o),
(993,688,o),
(993,832,cs),
(993,877,l)
);
}
);
vertWidth = 589;
width = 1000;
}
);
note = cid59894;
unicode = 65080;
},
{
glyphname = bracketleft.full.vert;
lastChange = "2023-08-28 01:18:40 +0000";
layers = (
{
hints = (
{
horizontal = 1;
place = (125, 37);
place = (125, 37);
type = Stem;
},
{
place = (32, 40);
place = (32, 40);
type = Stem;
},
{
place = (928, 40);
place = (928, 40);
type = Stem;
}
);
layerId = m01;
shapes = (
{
closed = 1;
nodes = (
(32,680,l),
(32,430,l),
(72,430,l),
(72,643,l),
(928,643,l),
(928,430,l),
(968,430,l),
(968,680,l)
);
}
);
vertWidth = 482;
width = 1000;
}
);
note = cid59909;
unicode = 65095;
},
{
glyphname = bracketright.full.vert;
lastChange = "2023-08-28 01:18:46 +0000";
layers = (
{
hints = (
{
horizontal = 1;
place = (598, 37);
place = (598, 37);
type = Stem;
},
{
place = (32, 40);
place = (32, 40);
type = Stem;
},
{
place = (928, 40);
place = (928, 40);
type = Stem;
}
);
layerId = m01;
shapes = (
{
closed = 1;
nodes = (
(968,598,l),
(968,848,l),
(928,848,l),
(928,635,l),
(72,635,l),
(72,848,l),
(32,848,l),
(32,598,l)
);
}
);
vertWidth = 482;
width = 1000;
}
);
note = cid59910;
unicode = 65096;
},
{
glyphname = parenleft.full.vert;
lastChange = "2023-08-28 01:18:51 +0000";
layers = (
{
hints = (
{
horizontal = 1;
place = (152, 83);
place = (152, 83);
type = Stem;
},
{
place = (29, 942);
place = (29, 942);
type = Stem;
}
);
layerId = m01;
shapes = (
{
closed = 1;
nodes = (
(258,680,o),
(116,543,o),
(29,402,c),
(48,386,l),
(144,501,o),
(285,597,o),
(500,597,cs),
(715,597,o),
(856,501,o),
(952,386,c),
(971,402,l),
(884,543,o),
(742,680,o),
(500,680,cs)
);
}
);
vertWidth = 555;
width = 1000;
}
);
note = cid59891;
unicode = 65077;
},
